<svg height="209" viewBox="0 0 385 209" width="385" xmlns="http://www.w3.org/2000/svg"><g fill="#f3f3f3" fill-rule="evenodd" transform="matrix(-1 0 0 -1 385 209)"><path d="m9.36739659 66.9162112-.15662456-.0095377c-2.51178569-.2712689-3.75074615-1.789532-3.92051559-3.8634196l-.02071989-.2495319h-5.26953655l.01091693.282581c.19695038 4.9453901 3.73314538 8.7404934 9.19205729 9.0825185l.16442237.0070978z"/><path d="m34.1990879 102.179585s-.3006681-.01607-.4764602-.022634v5.357058c.0223855 0 .2120039.009959.2120039.009959 2.7641711.197823 4.8128839 2.217471 4.9004507 4.9424h5.1916817c-.0869084-5.583853-4.1024732-9.956324-9.8276761-10.286783"/><path d="m78.233902 13.1210762c-2.3376833 0-4.5483764.9333309-6.2236274 2.6285598-1.6730348 1.6917772-2.6271235 3.9510085-2.6849672 6.363724l-.0062054.2540427c-.0004433.043491-.0004433.0860616-.0002216.1258708h5.2416143c-.0011081-.0335962-.0015514-.066272-.0015514-.0989478v-.0830701c.0164002-2.0953922 1.6648348-3.7998255 3.6749587-3.7998255 2.0356107 0 3.6922454 1.720311 3.6922454 3.8350325v.1468109h5.1906409v-.1488819c0-5.0859168-3.9852314-9.2233154-8.8828863-9.2233154"/><path d="m340.603745 78.7258083v.0006491c0-3.3036982 2.687109-5.9936052 5.989929-5.9936052v-5.2530316c-6.197545 0-11.239578 5.0451171-11.240876 11.2459877z"/><path d="m150.47817 33.4670034h5.620438v-31.86547083h-5.620438z"/><path d="m307.250608 21.5560538h5.620438v-21.5560538h-5.620438z"/><path d="m125.368965 190.922765c-3.440397 0-6.23948-2.802545-6.23948-6.24403 0-3.44216 2.799083-6.240874 6.23948-6.240874 3.440398 0 6.239029 2.798714 6.239029 6.240874v.002254h5.469541v-.002254c0-6.457911-5.251714-11.713218-11.70857-11.713218-6.45618 0-11.709921 5.255307-11.709921 11.713218 0 6.460165 5.253741 11.717276 11.709921 11.717276z"/><path d="m282.933681 112.109659v-.002379c0 3.303469-2.686842 5.993231-5.989814 5.993231v5.253405c6.198074 0 11.239362-5.045952 11.240876-11.244257z"/><path d="m346.592377 179.143991h.001297c-3.572239-.135022-5.98869-1.635411-5.98869-5.758341h-5.252186c0 6.827048 4.249062 11.246637 11.239579 11.246637z"/><path d="m252.919708 191.041956h.00173c3.301535 0 5.989425 2.802824 5.989425 6.243699 0 3.441325-2.68789 6.243023-5.989425 6.243023h-.00173v5.471322h.00173c6.337115 0 11.239146-5.255183 11.239146-11.714345 0-6.460965-5.040631-11.716148-11.239146-11.716148h-.00173z"/><path d="m29.0404874 163.076233c-5.6803284 0-10.3019106 5.29948-10.3019106 11.029024l-.0037836-.469569v2.025071h5.4063497v-2.025071h.0020031c0-2.723811 2.196726-4.939672 4.8973414-4.939672 2.7012831 0 4.8971188 2.215861 4.8971188 4.939672v11.933819h5.4054595v-11.933819c0-6.318749-4.383214-10.559455-10.3025783-10.559455"/><path d="m385 101.068862h-.001295c-3.581115 0-6.138591 2.598179-6.138591 6.243699 0 3.612614 2.590281 6.243023 6.138591 6.243023h.001295v5.471322h-.001295c-6.186072 0-11.260451-5.337672-11.239516-11.465977.022013-6.46074 5.053444-11.9645164 11.239516-11.9645164h.001295z"/></g></svg>