<?xml version="1.0" standalone="no"?>
<!DOCTYPE svg PUBLIC "-//W3C//DTD SVG 20010904//EN"
 "http://www.w3.org/TR/2001/REC-SVG-20010904/DTD/svg10.dtd">
<svg version="1.0" xmlns="http://www.w3.org/2000/svg"
 width="809.000000pt" height="809.000000pt" viewBox="0 0 809.000000 809.000000"
 preserveAspectRatio="xMidYMid meet">
<metadata>
Created by potrace 1.11, written by Peter Selinger 2001-2013
</metadata>
<g transform="translate(0.000000,809.000000) scale(0.100000,-0.100000)"
fill="#000000" stroke="none">
<path d="M3415 6425 c-231 -51 -424 -204 -531 -420 -71 -145 -76 -176 -81
-462 l-5 -253 -574 0 -574 0 0 -325 0 -325 575 0 575 0 0 -134 0 -134 -247 -5
c-279 -5 -324 -13 -460 -78 -159 -76 -289 -205 -368 -366 -51 -105 -67 -173
-72 -314 -4 -106 -2 -139 16 -209 64 -253 235 -451 471 -547 111 -44 178 -53
428 -53 l232 0 0 -580 0 -580 325 0 325 0 0 580 0 580 134 0 134 0 5 -247 c4
-209 8 -260 25 -324 74 -273 288 -488 561 -561 55 -15 108 -21 196 -21 141 -1
221 16 340 73 159 76 277 191 359 350 73 140 78 171 85 465 l6 260 578 3 577
2 0 320 0 320 -577 2 -578 3 0 135 0 135 255 6 c291 7 322 12 469 86 171 85
313 246 381 431 142 390 -52 830 -439 993 -107 45 -215 59 -457 59 l-214 0 0
575 0 575 -320 0 -320 0 0 -575 0 -575 -140 0 -140 0 0 225 c0 167 -4 246 -16
303 -62 302 -301 544 -602 607 -83 18 -257 18 -337 0z m380 -109 c181 -58 327
-185 411 -354 59 -122 66 -163 71 -429 l5 -243 -230 0 -230 0 -4 218 -3 219
-30 49 c-19 30 -49 60 -80 79 -42 26 -58 30 -119 30 -59 0 -79 -5 -117 -27
-25 -15 -59 -46 -75 -70 l-29 -43 -3 -687 -2 -688 -236 0 -235 0 3 698 c4 692
4 698 27 772 77 253 273 438 526 496 92 21 251 12 350 -20z m1405 -956 l0
-990 -230 0 -230 0 0 990 0 990 230 0 230 0 0 -990z m-1579 430 c19 -5 48 -24
65 -41 l29 -30 3 -215 3 -214 -135 0 -136 0 0 200 c0 211 4 233 48 273 16 15
55 32 82 36 3 1 21 -4 41 -9z m-821 -825 l0 -235 -183 0 c-101 0 -340 3 -530
7 l-347 6 0 229 0 228 530 0 530 0 0 -235z m1845 0 l0 -230 -597 -3 -598 -2 0
235 0 235 598 -2 597 -3 0 -230z m1101 224 c295 -41 526 -251 590 -536 26
-117 16 -274 -24 -381 -89 -239 -284 -403 -532 -448 -58 -10 -224 -13 -742
-14 l-668 0 0 230 0 229 678 3 c675 3 677 3 718 25 51 27 98 80 114 128 7 20
10 65 8 100 -5 75 -37 131 -100 172 l-41 28 -226 5 -226 5 -3 220 c-1 121 0
225 2 232 7 17 338 18 452 2z m-2026 -684 l0 -135 -135 0 -135 0 0 135 0 135
135 0 135 0 0 -135z m558 -462 l-3 -598 -227 -3 -228 -2 0 600 0 600 230 0
230 0 -2 -597z m372 462 l0 -135 -140 0 -140 0 0 135 0 135 140 0 140 0 0
-135z m1106 94 c63 -64 54 -163 -21 -209 -30 -18 -49 -20 -239 -20 l-206 0 0
136 0 135 215 -3 215 -3 36 -36z m-2036 -559 l0 -230 -672 0 c-758 0 -716 4
-790 -78 -60 -67 -74 -160 -37 -242 25 -56 53 -86 104 -113 37 -20 57 -22 258
-25 l217 -3 0 -231 0 -230 -247 4 c-236 4 -252 6 -328 31 -111 37 -197 90
-279 173 -392 391 -191 1044 359 1167 11 3 334 5 718 6 l697 1 0 -230z m-920
-460 l0 -140 -182 0 c-101 0 -200 5 -220 10 -43 12 -93 66 -103 110 -10 45 29
120 75 142 30 15 65 18 233 18 l197 0 0 -140z m558 20 c2 -63 0 -508 -3 -987
l-7 -873 -229 0 -229 0 0 983 c0 541 3 987 7 991 4 3 108 5 232 4 l226 -3 3
-115z m362 -20 l0 -140 -135 0 -135 0 0 140 0 140 135 0 135 0 0 -140z m925 0
l0 -135 -135 0 -135 0 -3 138 -3 138 138 -3 138 -3 0 -135z m555 -535 c0 -765
0 -765 -75 -920 -77 -161 -223 -291 -392 -350 -105 -36 -266 -45 -377 -20
-247 54 -453 255 -516 501 -17 66 -20 111 -20 311 l0 233 228 -2 227 -3 5
-220 c5 -200 7 -224 26 -260 26 -48 45 -66 101 -94 54 -27 142 -28 199 -2 49
23 107 88 122 140 9 27 12 227 12 700 l0 661 230 0 230 0 0 -675z m-550 75 l0
-230 -600 0 -600 0 0 230 0 230 600 0 600 0 0 -230z m1700 0 l0 -230 -530 0
-530 0 0 230 0 230 530 0 530 0 0 -230z m-1702 -513 c2 -168 0 -193 -17 -232
-47 -105 -180 -113 -241 -13 -18 30 -20 51 -20 229 0 108 3 199 7 203 4 3 66
5 137 4 l131 -3 3 -188z"/>
</g>
</svg>
