<svg xmlns="http://www.w3.org/2000/svg" xmlns:xlink="http://www.w3.org/1999/xlink" preserveAspectRatio="xMidYMid" width="26" height="26" viewBox="0 0 400 400">
  <defs>
    <style>
      .cls-1 {
        fill: #2e2e2e;
        fill-rule: evenodd;
      }
    </style>
  </defs>
  <path d="M151.625,293.250 C185.640,293.250 216.885,281.308 241.518,261.471 L363.727,384.297 C366.849,387.434 370.944,389.000 375.042,389.000 C379.114,389.000 383.185,387.450 386.297,384.356 C392.546,378.139 392.570,368.032 386.356,361.786 L263.999,238.810 C283.505,214.285 295.250,183.326 295.250,149.625 C295.250,70.430 230.821,6.000 151.625,6.000 C72.430,6.000 8.000,70.430 8.000,149.625 C8.000,228.821 72.430,293.250 151.625,293.250 ZM151.625,37.917 C213.223,37.917 263.333,88.029 263.333,149.625 C263.333,211.223 213.223,261.333 151.625,261.333 C90.029,261.333 39.917,211.223 39.917,149.625 C39.917,88.029 90.029,37.917 151.625,37.917 Z" class="cls-1"/>
</svg>
